<mxfile host="app.diagrams.net" modified="2024-03-07T03:44:50.856Z" agent="Mozilla/5.0 (Windows NT 10.0; Win64; x64) AppleWebKit/537.36 (KHTML, like Gecko) Chrome/122.0.0.0 Safari/537.36" etag="BThHnNzV1n7qd00qtxGr" version="24.0.2" type="github">
  <diagram name="第 1 页" id="RAFPqSzLiMNiQozx8TXi">
    <mxGraphModel dx="3274" dy="1606" grid="1" gridSize="10" guides="1" tooltips="1" connect="1" arrows="1" fold="1" page="0" pageScale="1" pageWidth="827" pageHeight="1169" math="0" shadow="0">
      <root>
        <mxCell id="0" />
        <mxCell id="1" parent="0" />
        <mxCell id="a2ljGdDj_Ik4Ae8jXwVR-6" style="edgeStyle=none;curved=1;rounded=0;orthogonalLoop=1;jettySize=auto;html=1;exitX=0.5;exitY=1;exitDx=0;exitDy=0;fontSize=12;startSize=8;endSize=8;" edge="1" parent="1" source="a2ljGdDj_Ik4Ae8jXwVR-1">
          <mxGeometry relative="1" as="geometry">
            <mxPoint x="-920" y="1850" as="targetPoint" />
          </mxGeometry>
        </mxCell>
        <mxCell id="a2ljGdDj_Ik4Ae8jXwVR-1" value="AMF" style="rounded=1;whiteSpace=wrap;html=1;fontSize=16;" vertex="1" parent="1">
          <mxGeometry x="-960" y="-760" width="80" height="40" as="geometry" />
        </mxCell>
        <mxCell id="a2ljGdDj_Ik4Ae8jXwVR-2" value="SMF" style="rounded=1;whiteSpace=wrap;html=1;fontSize=16;" vertex="1" parent="1">
          <mxGeometry x="-520" y="-760" width="80" height="40" as="geometry" />
        </mxCell>
        <mxCell id="a2ljGdDj_Ik4Ae8jXwVR-3" value="PCF" style="rounded=1;whiteSpace=wrap;html=1;fontSize=16;" vertex="1" parent="1">
          <mxGeometry x="-80" y="-760" width="80" height="40" as="geometry" />
        </mxCell>
        <mxCell id="a2ljGdDj_Ik4Ae8jXwVR-4" value="UDM" style="rounded=1;whiteSpace=wrap;html=1;fontSize=16;" vertex="1" parent="1">
          <mxGeometry x="360" y="-760" width="80" height="40" as="geometry" />
        </mxCell>
        <mxCell id="a2ljGdDj_Ik4Ae8jXwVR-5" value="UPF" style="rounded=1;whiteSpace=wrap;html=1;fontSize=16;" vertex="1" parent="1">
          <mxGeometry x="-1400" y="-760" width="80" height="40" as="geometry" />
        </mxCell>
        <mxCell id="a2ljGdDj_Ik4Ae8jXwVR-7" style="edgeStyle=none;curved=1;rounded=0;orthogonalLoop=1;jettySize=auto;html=1;exitX=0.5;exitY=1;exitDx=0;exitDy=0;fontSize=12;startSize=8;endSize=8;" edge="1" parent="1">
          <mxGeometry relative="1" as="geometry">
            <mxPoint x="-480.83" y="1850" as="targetPoint" />
            <mxPoint x="-480.83" y="-720" as="sourcePoint" />
          </mxGeometry>
        </mxCell>
        <mxCell id="a2ljGdDj_Ik4Ae8jXwVR-11" value="EN_SM_S_NULL" style="edgeLabel;html=1;align=center;verticalAlign=middle;resizable=0;points=[];fontSize=12;" vertex="1" connectable="0" parent="a2ljGdDj_Ik4Ae8jXwVR-7">
          <mxGeometry x="-0.9835" y="-1" relative="1" as="geometry">
            <mxPoint as="offset" />
          </mxGeometry>
        </mxCell>
        <mxCell id="a2ljGdDj_Ik4Ae8jXwVR-24" value="EN_SM_S_ESTAB_UDM_SELECT" style="edgeLabel;html=1;align=center;verticalAlign=middle;resizable=0;points=[];fontSize=12;" vertex="1" connectable="0" parent="a2ljGdDj_Ik4Ae8jXwVR-7">
          <mxGeometry x="-0.8912" y="-1" relative="1" as="geometry">
            <mxPoint as="offset" />
          </mxGeometry>
        </mxCell>
        <mxCell id="a2ljGdDj_Ik4Ae8jXwVR-27" value="EN_SM_S_ESTAB_SUBSCRIB" style="edgeLabel;html=1;align=center;verticalAlign=middle;resizable=0;points=[];fontSize=12;" vertex="1" connectable="0" parent="a2ljGdDj_Ik4Ae8jXwVR-7">
          <mxGeometry x="-0.8588" y="-1" relative="1" as="geometry">
            <mxPoint as="offset" />
          </mxGeometry>
        </mxCell>
        <mxCell id="a2ljGdDj_Ik4Ae8jXwVR-36" value="EN_SM_S_ESTAB_PCF_SELECT" style="edgeLabel;html=1;align=center;verticalAlign=middle;resizable=0;points=[];fontSize=12;" vertex="1" connectable="0" parent="a2ljGdDj_Ik4Ae8jXwVR-7">
          <mxGeometry x="-0.7362" y="1" relative="1" as="geometry">
            <mxPoint as="offset" />
          </mxGeometry>
        </mxCell>
        <mxCell id="a2ljGdDj_Ik4Ae8jXwVR-41" value="向nrf选择pcf" style="edgeLabel;html=1;align=center;verticalAlign=middle;resizable=0;points=[];fontSize=12;" vertex="1" connectable="0" parent="a2ljGdDj_Ik4Ae8jXwVR-7">
          <mxGeometry x="-0.715" y="-3" relative="1" as="geometry">
            <mxPoint as="offset" />
          </mxGeometry>
        </mxCell>
        <mxCell id="a2ljGdDj_Ik4Ae8jXwVR-42" value="EN_SM_S_ESTAB_POLICY" style="edgeLabel;html=1;align=center;verticalAlign=middle;resizable=0;points=[];fontSize=12;" vertex="1" connectable="0" parent="a2ljGdDj_Ik4Ae8jXwVR-7">
          <mxGeometry x="-0.6696" y="-1" relative="1" as="geometry">
            <mxPoint as="offset" />
          </mxGeometry>
        </mxCell>
        <mxCell id="a2ljGdDj_Ik4Ae8jXwVR-45" value="EN_SM_S_ESTAB_CHF_SELECT" style="edgeLabel;html=1;align=center;verticalAlign=middle;resizable=0;points=[];fontSize=12;" vertex="1" connectable="0" parent="a2ljGdDj_Ik4Ae8jXwVR-7">
          <mxGeometry x="-0.6428" relative="1" as="geometry">
            <mxPoint as="offset" />
          </mxGeometry>
        </mxCell>
        <mxCell id="a2ljGdDj_Ik4Ae8jXwVR-51" value="EN_SM_S_ESTAB_CHARGINIT" style="edgeLabel;html=1;align=center;verticalAlign=middle;resizable=0;points=[];fontSize=12;" vertex="1" connectable="0" parent="a2ljGdDj_Ik4Ae8jXwVR-7">
          <mxGeometry x="-0.5793" y="-1" relative="1" as="geometry">
            <mxPoint as="offset" />
          </mxGeometry>
        </mxCell>
        <mxCell id="a2ljGdDj_Ik4Ae8jXwVR-56" value="EN_SM_S_ESTAB_N4UL" style="edgeLabel;html=1;align=center;verticalAlign=middle;resizable=0;points=[];fontSize=12;" vertex="1" connectable="0" parent="a2ljGdDj_Ik4Ae8jXwVR-7">
          <mxGeometry x="-0.5164" relative="1" as="geometry">
            <mxPoint as="offset" />
          </mxGeometry>
        </mxCell>
        <mxCell id="a2ljGdDj_Ik4Ae8jXwVR-64" value="EN_SM_S_ESTAB_GNB" style="edgeLabel;html=1;align=center;verticalAlign=middle;resizable=0;points=[];fontSize=12;" vertex="1" connectable="0" parent="a2ljGdDj_Ik4Ae8jXwVR-7">
          <mxGeometry x="-0.454" y="1" relative="1" as="geometry">
            <mxPoint as="offset" />
          </mxGeometry>
        </mxCell>
        <mxCell id="a2ljGdDj_Ik4Ae8jXwVR-67" value="EN_SM_S_ESTAB_GNB" style="edgeLabel;html=1;align=center;verticalAlign=middle;resizable=0;points=[];fontSize=12;" vertex="1" connectable="0" parent="a2ljGdDj_Ik4Ae8jXwVR-7">
          <mxGeometry x="-0.4218" y="-2" relative="1" as="geometry">
            <mxPoint as="offset" />
          </mxGeometry>
        </mxCell>
        <mxCell id="a2ljGdDj_Ik4Ae8jXwVR-68" value="EN_SM_S_ESTAB_N4DL" style="edgeLabel;html=1;align=center;verticalAlign=middle;resizable=0;points=[];fontSize=12;" vertex="1" connectable="0" parent="a2ljGdDj_Ik4Ae8jXwVR-7">
          <mxGeometry x="-0.3907" relative="1" as="geometry">
            <mxPoint as="offset" />
          </mxGeometry>
        </mxCell>
        <mxCell id="a2ljGdDj_Ik4Ae8jXwVR-82" value="EN_SM_S_ACTIVED" style="edgeLabel;html=1;align=center;verticalAlign=middle;resizable=0;points=[];fontSize=12;" vertex="1" connectable="0" parent="a2ljGdDj_Ik4Ae8jXwVR-7">
          <mxGeometry x="-0.235" y="1" relative="1" as="geometry">
            <mxPoint as="offset" />
          </mxGeometry>
        </mxCell>
        <mxCell id="a2ljGdDj_Ik4Ae8jXwVR-8" style="edgeStyle=none;curved=1;rounded=0;orthogonalLoop=1;jettySize=auto;html=1;exitX=0.5;exitY=1;exitDx=0;exitDy=0;fontSize=12;startSize=8;endSize=8;" edge="1" parent="1">
          <mxGeometry relative="1" as="geometry">
            <mxPoint x="-40.66999999999996" y="1850" as="targetPoint" />
            <mxPoint x="-40.66999999999996" y="-720" as="sourcePoint" />
          </mxGeometry>
        </mxCell>
        <mxCell id="a2ljGdDj_Ik4Ae8jXwVR-9" style="edgeStyle=none;curved=1;rounded=0;orthogonalLoop=1;jettySize=auto;html=1;exitX=0.5;exitY=1;exitDx=0;exitDy=0;fontSize=12;startSize=8;endSize=8;" edge="1" parent="1">
          <mxGeometry relative="1" as="geometry">
            <mxPoint x="399.3299999999999" y="1850" as="targetPoint" />
            <mxPoint x="399.3299999999999" y="-720" as="sourcePoint" />
          </mxGeometry>
        </mxCell>
        <mxCell id="a2ljGdDj_Ik4Ae8jXwVR-10" style="edgeStyle=none;curved=1;rounded=0;orthogonalLoop=1;jettySize=auto;html=1;exitX=0.5;exitY=1;exitDx=0;exitDy=0;fontSize=12;startSize=8;endSize=8;" edge="1" parent="1">
          <mxGeometry relative="1" as="geometry">
            <mxPoint x="-1360.59" y="1850" as="targetPoint" />
            <mxPoint x="-1360.59" y="-720" as="sourcePoint" />
          </mxGeometry>
        </mxCell>
        <mxCell id="a2ljGdDj_Ik4Ae8jXwVR-12" value="" style="edgeStyle=segmentEdgeStyle;endArrow=classic;html=1;curved=0;rounded=0;endSize=8;startSize=8;fontSize=12;" edge="1" parent="1">
          <mxGeometry width="50" height="50" relative="1" as="geometry">
            <mxPoint x="-920" y="-640" as="sourcePoint" />
            <mxPoint x="-480" y="-640" as="targetPoint" />
          </mxGeometry>
        </mxCell>
        <mxCell id="a2ljGdDj_Ik4Ae8jXwVR-13" value="&lt;div style=&quot;&quot;&gt;&lt;font style=&quot;font-size: 10px;&quot;&gt;EN_NSMF_CREATE_SM_CONTEXT&amp;nbsp; &amp;nbsp; |&amp;nbsp; &amp;nbsp; EN_MSG_SM_NAMF_ESTAB_REQ&lt;/font&gt;&lt;br&gt;&lt;/div&gt;" style="edgeLabel;html=1;align=center;verticalAlign=bottom;resizable=0;points=[];fontSize=16;labelPosition=center;verticalLabelPosition=top;" vertex="1" connectable="0" parent="a2ljGdDj_Ik4Ae8jXwVR-12">
          <mxGeometry relative="1" as="geometry">
            <mxPoint as="offset" />
          </mxGeometry>
        </mxCell>
        <mxCell id="a2ljGdDj_Ik4Ae8jXwVR-22" value="" style="edgeStyle=segmentEdgeStyle;endArrow=classic;html=1;curved=0;rounded=0;endSize=8;startSize=8;fontSize=12;" edge="1" parent="1">
          <mxGeometry width="50" height="50" relative="1" as="geometry">
            <mxPoint x="-480" y="-600" as="sourcePoint" />
            <mxPoint x="400" y="-600" as="targetPoint" />
          </mxGeometry>
        </mxCell>
        <mxCell id="a2ljGdDj_Ik4Ae8jXwVR-23" value="&lt;div style=&quot;&quot;&gt;&lt;font style=&quot;font-size: 10px;&quot;&gt;EN_SM_NNRF_MSG_UDM_SELECT&lt;/font&gt;&lt;br&gt;&lt;/div&gt;" style="edgeLabel;html=1;align=center;verticalAlign=bottom;resizable=0;points=[];fontSize=16;labelPosition=center;verticalLabelPosition=top;" vertex="1" connectable="0" parent="a2ljGdDj_Ik4Ae8jXwVR-22">
          <mxGeometry relative="1" as="geometry">
            <mxPoint as="offset" />
          </mxGeometry>
        </mxCell>
        <mxCell id="a2ljGdDj_Ik4Ae8jXwVR-25" value="" style="edgeStyle=segmentEdgeStyle;endArrow=classic;html=1;curved=0;rounded=0;endSize=8;startSize=8;fontSize=12;entryX=0.016;entryY=0.5;entryDx=0;entryDy=0;entryPerimeter=0;" edge="1" parent="1">
          <mxGeometry width="50" height="50" relative="1" as="geometry">
            <mxPoint x="400" y="-560" as="sourcePoint" />
            <mxPoint x="-480.0000000000002" y="-560" as="targetPoint" />
          </mxGeometry>
        </mxCell>
        <mxCell id="a2ljGdDj_Ik4Ae8jXwVR-26" value="&lt;font style=&quot;font-size: 10px;&quot;&gt;EN_MSG_SM_NNRF_UDM_SELECT_RSP&lt;/font&gt;" style="edgeLabel;html=1;align=center;verticalAlign=bottom;resizable=0;points=[];fontSize=16;labelPosition=center;verticalLabelPosition=top;" vertex="1" connectable="0" parent="a2ljGdDj_Ik4Ae8jXwVR-25">
          <mxGeometry relative="1" as="geometry">
            <mxPoint as="offset" />
          </mxGeometry>
        </mxCell>
        <mxCell id="a2ljGdDj_Ik4Ae8jXwVR-28" value="" style="edgeStyle=segmentEdgeStyle;endArrow=classic;html=1;curved=0;rounded=0;endSize=8;startSize=8;fontSize=12;" edge="1" parent="1">
          <mxGeometry width="50" height="50" relative="1" as="geometry">
            <mxPoint x="-480" y="-520" as="sourcePoint" />
            <mxPoint x="400" y="-520" as="targetPoint" />
          </mxGeometry>
        </mxCell>
        <mxCell id="a2ljGdDj_Ik4Ae8jXwVR-29" value="&lt;div style=&quot;&quot;&gt;&lt;font style=&quot;font-size: 10px;&quot;&gt;EN_SDM_MSG_PDU_SESSION_SM_DATA&lt;/font&gt;&lt;br&gt;&lt;/div&gt;" style="edgeLabel;html=1;align=center;verticalAlign=bottom;resizable=0;points=[];fontSize=16;labelPosition=center;verticalLabelPosition=top;" vertex="1" connectable="0" parent="a2ljGdDj_Ik4Ae8jXwVR-28">
          <mxGeometry relative="1" as="geometry">
            <mxPoint as="offset" />
          </mxGeometry>
        </mxCell>
        <mxCell id="a2ljGdDj_Ik4Ae8jXwVR-30" value="" style="edgeStyle=segmentEdgeStyle;endArrow=classic;html=1;curved=0;rounded=0;endSize=8;startSize=8;fontSize=12;entryX=0.016;entryY=0.5;entryDx=0;entryDy=0;entryPerimeter=0;" edge="1" parent="1">
          <mxGeometry width="50" height="50" relative="1" as="geometry">
            <mxPoint x="400" y="-480" as="sourcePoint" />
            <mxPoint x="-480.0000000000002" y="-480" as="targetPoint" />
          </mxGeometry>
        </mxCell>
        <mxCell id="a2ljGdDj_Ik4Ae8jXwVR-31" value="&lt;font style=&quot;font-size: 10px;&quot;&gt;EN_MSG_SM_NSDM_SMDATA_RSP&lt;/font&gt;" style="edgeLabel;html=1;align=center;verticalAlign=bottom;resizable=0;points=[];fontSize=16;labelPosition=center;verticalLabelPosition=top;" vertex="1" connectable="0" parent="a2ljGdDj_Ik4Ae8jXwVR-30">
          <mxGeometry relative="1" as="geometry">
            <mxPoint as="offset" />
          </mxGeometry>
        </mxCell>
        <mxCell id="a2ljGdDj_Ik4Ae8jXwVR-32" value="" style="edgeStyle=segmentEdgeStyle;endArrow=classic;html=1;curved=0;rounded=0;endSize=8;startSize=8;fontSize=12;" edge="1" parent="1">
          <mxGeometry width="50" height="50" relative="1" as="geometry">
            <mxPoint x="-480" y="-440" as="sourcePoint" />
            <mxPoint x="400" y="-440" as="targetPoint" />
          </mxGeometry>
        </mxCell>
        <mxCell id="a2ljGdDj_Ik4Ae8jXwVR-33" value="&lt;div style=&quot;&quot;&gt;&lt;font style=&quot;font-size: 10px;&quot;&gt;EN_SDM_MSG_SUBSCRIPTIONS&lt;/font&gt;&lt;br&gt;&lt;/div&gt;" style="edgeLabel;html=1;align=center;verticalAlign=bottom;resizable=0;points=[];fontSize=16;labelPosition=center;verticalLabelPosition=top;" vertex="1" connectable="0" parent="a2ljGdDj_Ik4Ae8jXwVR-32">
          <mxGeometry relative="1" as="geometry">
            <mxPoint as="offset" />
          </mxGeometry>
        </mxCell>
        <mxCell id="a2ljGdDj_Ik4Ae8jXwVR-34" value="" style="edgeStyle=segmentEdgeStyle;endArrow=classic;html=1;curved=0;rounded=0;endSize=8;startSize=8;fontSize=12;entryX=0.016;entryY=0.5;entryDx=0;entryDy=0;entryPerimeter=0;" edge="1" parent="1">
          <mxGeometry width="50" height="50" relative="1" as="geometry">
            <mxPoint x="-480.00000000000045" y="-399.51999999999975" as="sourcePoint" />
            <mxPoint x="-920.0000000000002" y="-400" as="targetPoint" />
          </mxGeometry>
        </mxCell>
        <mxCell id="a2ljGdDj_Ik4Ae8jXwVR-35" value="&lt;font style=&quot;font-size: 10px;&quot;&gt;EN_NSMF_CREATE_SM_CONTEXT&lt;/font&gt;" style="edgeLabel;html=1;align=center;verticalAlign=bottom;resizable=0;points=[];fontSize=16;labelPosition=center;verticalLabelPosition=top;" vertex="1" connectable="0" parent="a2ljGdDj_Ik4Ae8jXwVR-34">
          <mxGeometry relative="1" as="geometry">
            <mxPoint as="offset" />
          </mxGeometry>
        </mxCell>
        <mxCell id="a2ljGdDj_Ik4Ae8jXwVR-39" value="" style="edgeStyle=segmentEdgeStyle;endArrow=classic;html=1;curved=0;rounded=0;endSize=8;startSize=8;fontSize=12;" edge="1" parent="1">
          <mxGeometry width="50" height="50" relative="1" as="geometry">
            <mxPoint x="-480" y="-320" as="sourcePoint" />
            <mxPoint x="-40" y="-320" as="targetPoint" />
          </mxGeometry>
        </mxCell>
        <mxCell id="a2ljGdDj_Ik4Ae8jXwVR-40" value="&lt;div style=&quot;&quot;&gt;&lt;font style=&quot;font-size: 10px;&quot;&gt;EN_PCF_MSG_ASSOCIATION_ESTABLISHMENT&lt;/font&gt;&lt;br&gt;&lt;/div&gt;" style="edgeLabel;html=1;align=center;verticalAlign=bottom;resizable=0;points=[];fontSize=16;labelPosition=center;verticalLabelPosition=top;" vertex="1" connectable="0" parent="a2ljGdDj_Ik4Ae8jXwVR-39">
          <mxGeometry relative="1" as="geometry">
            <mxPoint as="offset" />
          </mxGeometry>
        </mxCell>
        <mxCell id="a2ljGdDj_Ik4Ae8jXwVR-43" value="" style="edgeStyle=segmentEdgeStyle;endArrow=classic;html=1;curved=0;rounded=0;endSize=8;startSize=8;fontSize=12;entryX=0.016;entryY=0.5;entryDx=0;entryDy=0;entryPerimeter=0;" edge="1" parent="1">
          <mxGeometry width="50" height="50" relative="1" as="geometry">
            <mxPoint x="-40.000000000000455" y="-279.51999999999975" as="sourcePoint" />
            <mxPoint x="-480.0000000000002" y="-280" as="targetPoint" />
          </mxGeometry>
        </mxCell>
        <mxCell id="a2ljGdDj_Ik4Ae8jXwVR-44" value="&lt;font style=&quot;font-size: 10px;&quot;&gt;EN_MSG_SM_NPCF_POLICY_GET_RSP&lt;/font&gt;" style="edgeLabel;html=1;align=center;verticalAlign=bottom;resizable=0;points=[];fontSize=16;labelPosition=center;verticalLabelPosition=top;" vertex="1" connectable="0" parent="a2ljGdDj_Ik4Ae8jXwVR-43">
          <mxGeometry relative="1" as="geometry">
            <mxPoint as="offset" />
          </mxGeometry>
        </mxCell>
        <mxCell id="a2ljGdDj_Ik4Ae8jXwVR-46" value="" style="edgeStyle=segmentEdgeStyle;endArrow=classic;html=1;curved=0;rounded=0;endSize=8;startSize=8;fontSize=12;" edge="1" parent="1">
          <mxGeometry width="50" height="50" relative="1" as="geometry">
            <mxPoint x="-480" y="-240" as="sourcePoint" />
            <mxPoint x="-40" y="-240" as="targetPoint" />
          </mxGeometry>
        </mxCell>
        <mxCell id="a2ljGdDj_Ik4Ae8jXwVR-47" value="&lt;div style=&quot;&quot;&gt;&lt;font style=&quot;font-size: 10px;&quot;&gt;EN_SM_NNRF_MSG_CHF_SELECT&lt;/font&gt;&lt;br&gt;&lt;/div&gt;" style="edgeLabel;html=1;align=center;verticalAlign=bottom;resizable=0;points=[];fontSize=16;labelPosition=center;verticalLabelPosition=top;" vertex="1" connectable="0" parent="a2ljGdDj_Ik4Ae8jXwVR-46">
          <mxGeometry relative="1" as="geometry">
            <mxPoint as="offset" />
          </mxGeometry>
        </mxCell>
        <mxCell id="a2ljGdDj_Ik4Ae8jXwVR-49" value="" style="edgeStyle=segmentEdgeStyle;endArrow=classic;html=1;curved=0;rounded=0;endSize=8;startSize=8;fontSize=12;entryX=0.016;entryY=0.5;entryDx=0;entryDy=0;entryPerimeter=0;" edge="1" parent="1">
          <mxGeometry width="50" height="50" relative="1" as="geometry">
            <mxPoint x="-40.000000000000455" y="-199.51999999999975" as="sourcePoint" />
            <mxPoint x="-480.0000000000002" y="-200" as="targetPoint" />
          </mxGeometry>
        </mxCell>
        <mxCell id="a2ljGdDj_Ik4Ae8jXwVR-50" value="&lt;font style=&quot;font-size: 10px;&quot;&gt;EN_MSG_SM_NNRF_CHF_SELECT_RSP&lt;/font&gt;" style="edgeLabel;html=1;align=center;verticalAlign=bottom;resizable=0;points=[];fontSize=16;labelPosition=center;verticalLabelPosition=top;" vertex="1" connectable="0" parent="a2ljGdDj_Ik4Ae8jXwVR-49">
          <mxGeometry relative="1" as="geometry">
            <mxPoint as="offset" />
          </mxGeometry>
        </mxCell>
        <mxCell id="a2ljGdDj_Ik4Ae8jXwVR-52" value="" style="edgeStyle=segmentEdgeStyle;endArrow=classic;html=1;curved=0;rounded=0;endSize=8;startSize=8;fontSize=12;" edge="1" parent="1">
          <mxGeometry width="50" height="50" relative="1" as="geometry">
            <mxPoint x="-480" y="-160" as="sourcePoint" />
            <mxPoint x="-40" y="-160" as="targetPoint" />
          </mxGeometry>
        </mxCell>
        <mxCell id="a2ljGdDj_Ik4Ae8jXwVR-53" value="&lt;div style=&quot;&quot;&gt;&lt;font style=&quot;font-size: 10px;&quot;&gt;EN_SM_S_ESTAB_CHARGINIT&lt;/font&gt;&lt;br&gt;&lt;/div&gt;" style="edgeLabel;html=1;align=center;verticalAlign=bottom;resizable=0;points=[];fontSize=16;labelPosition=center;verticalLabelPosition=top;" vertex="1" connectable="0" parent="a2ljGdDj_Ik4Ae8jXwVR-52">
          <mxGeometry relative="1" as="geometry">
            <mxPoint as="offset" />
          </mxGeometry>
        </mxCell>
        <mxCell id="a2ljGdDj_Ik4Ae8jXwVR-54" value="" style="edgeStyle=segmentEdgeStyle;endArrow=classic;html=1;curved=0;rounded=0;endSize=8;startSize=8;fontSize=12;entryX=0.016;entryY=0.5;entryDx=0;entryDy=0;entryPerimeter=0;" edge="1" parent="1">
          <mxGeometry width="50" height="50" relative="1" as="geometry">
            <mxPoint x="-40.000000000000455" y="-119.51999999999975" as="sourcePoint" />
            <mxPoint x="-480.0000000000002" y="-120" as="targetPoint" />
          </mxGeometry>
        </mxCell>
        <mxCell id="a2ljGdDj_Ik4Ae8jXwVR-55" value="&lt;font style=&quot;font-size: 10px;&quot;&gt;EN_MSG_SM_NCHF_INIT_RSP&lt;/font&gt;" style="edgeLabel;html=1;align=center;verticalAlign=bottom;resizable=0;points=[];fontSize=16;labelPosition=center;verticalLabelPosition=top;" vertex="1" connectable="0" parent="a2ljGdDj_Ik4Ae8jXwVR-54">
          <mxGeometry relative="1" as="geometry">
            <mxPoint as="offset" />
          </mxGeometry>
        </mxCell>
        <mxCell id="a2ljGdDj_Ik4Ae8jXwVR-60" value="" style="edgeStyle=segmentEdgeStyle;endArrow=classic;html=1;curved=0;rounded=0;endSize=8;startSize=8;fontSize=12;" edge="1" parent="1">
          <mxGeometry width="50" height="50" relative="1" as="geometry">
            <mxPoint x="-480.00000000000045" y="-79.51999999999975" as="sourcePoint" />
            <mxPoint x="-1360" y="-80" as="targetPoint" />
          </mxGeometry>
        </mxCell>
        <mxCell id="a2ljGdDj_Ik4Ae8jXwVR-61" value="&lt;font style=&quot;font-size: 10px;&quot;&gt;EN_MSG_SM_N4_ESTAB_REQ&lt;/font&gt;" style="edgeLabel;html=1;align=center;verticalAlign=bottom;resizable=0;points=[];fontSize=16;labelPosition=center;verticalLabelPosition=top;" vertex="1" connectable="0" parent="a2ljGdDj_Ik4Ae8jXwVR-60">
          <mxGeometry relative="1" as="geometry">
            <mxPoint as="offset" />
          </mxGeometry>
        </mxCell>
        <mxCell id="a2ljGdDj_Ik4Ae8jXwVR-62" value="" style="edgeStyle=segmentEdgeStyle;endArrow=classic;html=1;curved=0;rounded=0;endSize=8;startSize=8;fontSize=12;" edge="1" parent="1">
          <mxGeometry width="50" height="50" relative="1" as="geometry">
            <mxPoint x="-1360" y="-40" as="sourcePoint" />
            <mxPoint x="-480" y="-40" as="targetPoint" />
          </mxGeometry>
        </mxCell>
        <mxCell id="a2ljGdDj_Ik4Ae8jXwVR-63" value="&lt;div style=&quot;&quot;&gt;&lt;font style=&quot;font-size: 10px;&quot;&gt;EN_MSG_SM_N4_ESTAB_RSP&lt;/font&gt;&lt;br&gt;&lt;/div&gt;" style="edgeLabel;html=1;align=center;verticalAlign=bottom;resizable=0;points=[];fontSize=16;labelPosition=center;verticalLabelPosition=top;" vertex="1" connectable="0" parent="a2ljGdDj_Ik4Ae8jXwVR-62">
          <mxGeometry relative="1" as="geometry">
            <mxPoint as="offset" />
          </mxGeometry>
        </mxCell>
        <mxCell id="a2ljGdDj_Ik4Ae8jXwVR-65" value="" style="edgeStyle=segmentEdgeStyle;endArrow=classic;html=1;curved=0;rounded=0;endSize=8;startSize=8;fontSize=12;entryX=0.016;entryY=0.5;entryDx=0;entryDy=0;entryPerimeter=0;" edge="1" parent="1">
          <mxGeometry width="50" height="50" relative="1" as="geometry">
            <mxPoint x="-480.00000000000045" y="0.48000000000024556" as="sourcePoint" />
            <mxPoint x="-920.0000000000002" as="targetPoint" />
          </mxGeometry>
        </mxCell>
        <mxCell id="a2ljGdDj_Ik4Ae8jXwVR-66" value="&lt;font style=&quot;font-size: 10px;&quot;&gt;EN_PDU_SESSION_ACTION_ESTABLISH_DL&lt;/font&gt;" style="edgeLabel;html=1;align=center;verticalAlign=bottom;resizable=0;points=[];fontSize=16;labelPosition=center;verticalLabelPosition=top;" vertex="1" connectable="0" parent="a2ljGdDj_Ik4Ae8jXwVR-65">
          <mxGeometry relative="1" as="geometry">
            <mxPoint as="offset" />
          </mxGeometry>
        </mxCell>
        <mxCell id="a2ljGdDj_Ik4Ae8jXwVR-69" value="" style="edgeStyle=segmentEdgeStyle;endArrow=classic;html=1;curved=0;rounded=0;endSize=8;startSize=8;fontSize=12;" edge="1" parent="1">
          <mxGeometry width="50" height="50" relative="1" as="geometry">
            <mxPoint x="-920" y="40" as="sourcePoint" />
            <mxPoint x="-480" y="40" as="targetPoint" />
          </mxGeometry>
        </mxCell>
        <mxCell id="a2ljGdDj_Ik4Ae8jXwVR-70" value="&lt;div style=&quot;&quot;&gt;&lt;font style=&quot;font-size: 10px;&quot;&gt;EN_MSG_SM_NAMF_UPDATE_REQ&lt;/font&gt;&lt;br&gt;&lt;/div&gt;" style="edgeLabel;html=1;align=center;verticalAlign=bottom;resizable=0;points=[];fontSize=16;labelPosition=center;verticalLabelPosition=top;" vertex="1" connectable="0" parent="a2ljGdDj_Ik4Ae8jXwVR-69">
          <mxGeometry relative="1" as="geometry">
            <mxPoint as="offset" />
          </mxGeometry>
        </mxCell>
        <mxCell id="a2ljGdDj_Ik4Ae8jXwVR-71" value="" style="edgeStyle=segmentEdgeStyle;endArrow=classic;html=1;curved=0;rounded=0;endSize=8;startSize=8;fontSize=12;" edge="1" parent="1">
          <mxGeometry width="50" height="50" relative="1" as="geometry">
            <mxPoint x="-480.00000000000045" y="80.48000000000025" as="sourcePoint" />
            <mxPoint x="-1360" y="80" as="targetPoint" />
          </mxGeometry>
        </mxCell>
        <mxCell id="a2ljGdDj_Ik4Ae8jXwVR-72" value="&lt;font style=&quot;font-size: 10px;&quot;&gt;EN_MSG_SM_N4_UPDATE_REQ&lt;/font&gt;" style="edgeLabel;html=1;align=center;verticalAlign=bottom;resizable=0;points=[];fontSize=16;labelPosition=center;verticalLabelPosition=top;" vertex="1" connectable="0" parent="a2ljGdDj_Ik4Ae8jXwVR-71">
          <mxGeometry relative="1" as="geometry">
            <mxPoint as="offset" />
          </mxGeometry>
        </mxCell>
        <mxCell id="a2ljGdDj_Ik4Ae8jXwVR-73" value="" style="edgeStyle=segmentEdgeStyle;endArrow=classic;html=1;curved=0;rounded=0;endSize=8;startSize=8;fontSize=12;" edge="1" parent="1">
          <mxGeometry width="50" height="50" relative="1" as="geometry">
            <mxPoint x="-1360" y="120" as="sourcePoint" />
            <mxPoint x="-480" y="120" as="targetPoint" />
          </mxGeometry>
        </mxCell>
        <mxCell id="a2ljGdDj_Ik4Ae8jXwVR-74" value="&lt;div style=&quot;&quot;&gt;&lt;font style=&quot;font-size: 10px;&quot;&gt;EN_MSG_SM_N4_UPDATE_RSP&lt;/font&gt;&lt;br&gt;&lt;/div&gt;" style="edgeLabel;html=1;align=center;verticalAlign=bottom;resizable=0;points=[];fontSize=16;labelPosition=center;verticalLabelPosition=top;" vertex="1" connectable="0" parent="a2ljGdDj_Ik4Ae8jXwVR-73">
          <mxGeometry relative="1" as="geometry">
            <mxPoint as="offset" />
          </mxGeometry>
        </mxCell>
        <mxCell id="a2ljGdDj_Ik4Ae8jXwVR-75" value="" style="edgeStyle=segmentEdgeStyle;endArrow=classic;html=1;curved=0;rounded=0;endSize=8;startSize=8;fontSize=12;entryX=0.016;entryY=0.5;entryDx=0;entryDy=0;entryPerimeter=0;" edge="1" parent="1">
          <mxGeometry width="50" height="50" relative="1" as="geometry">
            <mxPoint x="-480.00000000000045" y="160.48000000000025" as="sourcePoint" />
            <mxPoint x="-920.0000000000002" y="160" as="targetPoint" />
          </mxGeometry>
        </mxCell>
        <mxCell id="a2ljGdDj_Ik4Ae8jXwVR-76" value="&lt;font style=&quot;font-size: 10px;&quot;&gt;EN_NSMF_UPDATE_SM_CONTEXT&lt;/font&gt;" style="edgeLabel;html=1;align=center;verticalAlign=bottom;resizable=0;points=[];fontSize=16;labelPosition=center;verticalLabelPosition=top;" vertex="1" connectable="0" parent="a2ljGdDj_Ik4Ae8jXwVR-75">
          <mxGeometry relative="1" as="geometry">
            <mxPoint as="offset" />
          </mxGeometry>
        </mxCell>
        <mxCell id="a2ljGdDj_Ik4Ae8jXwVR-77" value="" style="edgeStyle=segmentEdgeStyle;endArrow=classic;html=1;curved=0;rounded=0;endSize=8;startSize=8;fontSize=12;" edge="1" parent="1">
          <mxGeometry width="50" height="50" relative="1" as="geometry">
            <mxPoint x="-480" y="200" as="sourcePoint" />
            <mxPoint x="400" y="200" as="targetPoint" />
          </mxGeometry>
        </mxCell>
        <mxCell id="a2ljGdDj_Ik4Ae8jXwVR-78" value="&lt;div style=&quot;&quot;&gt;&lt;font style=&quot;font-size: 10px;&quot;&gt;EN_UECM_SMF_REGISTRATION&lt;/font&gt;&lt;br&gt;&lt;/div&gt;" style="edgeLabel;html=1;align=center;verticalAlign=bottom;resizable=0;points=[];fontSize=16;labelPosition=center;verticalLabelPosition=top;" vertex="1" connectable="0" parent="a2ljGdDj_Ik4Ae8jXwVR-77">
          <mxGeometry relative="1" as="geometry">
            <mxPoint as="offset" />
          </mxGeometry>
        </mxCell>
        <mxCell id="a2ljGdDj_Ik4Ae8jXwVR-79" value="Text" style="edgeLabel;html=1;align=center;verticalAlign=middle;resizable=0;points=[];fontSize=12;" vertex="1" connectable="0" parent="a2ljGdDj_Ik4Ae8jXwVR-77">
          <mxGeometry x="-0.0023" y="7" relative="1" as="geometry">
            <mxPoint as="offset" />
          </mxGeometry>
        </mxCell>
        <mxCell id="a2ljGdDj_Ik4Ae8jXwVR-80" value="" style="edgeStyle=segmentEdgeStyle;endArrow=classic;html=1;curved=0;rounded=0;endSize=8;startSize=8;fontSize=12;entryX=0.016;entryY=0.5;entryDx=0;entryDy=0;entryPerimeter=0;" edge="1" parent="1">
          <mxGeometry width="50" height="50" relative="1" as="geometry">
            <mxPoint x="-480.00000000000045" y="240.48000000000025" as="sourcePoint" />
            <mxPoint x="-920.0000000000002" y="240" as="targetPoint" />
          </mxGeometry>
        </mxCell>
        <mxCell id="a2ljGdDj_Ik4Ae8jXwVR-81" value="&lt;font style=&quot;font-size: 10px;&quot;&gt;EN_NAMF_SUBSCRIPTION_CREATE&lt;/font&gt;" style="edgeLabel;html=1;align=center;verticalAlign=bottom;resizable=0;points=[];fontSize=16;labelPosition=center;verticalLabelPosition=top;" vertex="1" connectable="0" parent="a2ljGdDj_Ik4Ae8jXwVR-80">
          <mxGeometry relative="1" as="geometry">
            <mxPoint as="offset" />
          </mxGeometry>
        </mxCell>
        <mxCell id="a2ljGdDj_Ik4Ae8jXwVR-83" value="" style="edgeStyle=segmentEdgeStyle;endArrow=classic;html=1;curved=0;rounded=0;endSize=8;startSize=8;fontSize=12;" edge="1" parent="1">
          <mxGeometry width="50" height="50" relative="1" as="geometry">
            <mxPoint x="-480.00000000000045" y="280.48000000000025" as="sourcePoint" />
            <mxPoint x="-1360" y="280" as="targetPoint" />
          </mxGeometry>
        </mxCell>
        <mxCell id="a2ljGdDj_Ik4Ae8jXwVR-84" value="&lt;font style=&quot;font-size: 10px;&quot;&gt;EN_MSG_SM_N4_SEND_IPV6_PREFIX&lt;/font&gt;" style="edgeLabel;html=1;align=center;verticalAlign=bottom;resizable=0;points=[];fontSize=16;labelPosition=center;verticalLabelPosition=top;" vertex="1" connectable="0" parent="a2ljGdDj_Ik4Ae8jXwVR-83">
          <mxGeometry relative="1" as="geometry">
            <mxPoint as="offset" />
          </mxGeometry>
        </mxCell>
      </root>
    </mxGraphModel>
  </diagram>
</mxfile>
